<?xml version="1.0" encoding="UTF-8"?>
<svg id="Layer_2" data-name="Layer 2" xmlns="http://www.w3.org/2000/svg" viewBox="0 0 61.51 74.97">
  <g id="Layer_2-2" data-name="Layer 2">
    <path d="M11.33.13c-1.46-.02-3.19,1.74-3.33,2.24s-2.53.72-2.32,1.01,1.95,1.23,2.32,1.66,1.09,2.17,1.16,3.26-.07,15.71-.29,16.07-6.59.87-8.25,5.36,1.31,11.67,2.39,13.17c3.5,4.88,8.4,4.63,9.48,6.01s7.31,5.07,9.05,5.86,4.92.65,4.99,1.23,2.02,5.36,1.96,7.52.74,7.27,1.19,7.44,1.14-.17,1.14.91,2.56.74,3.12,1.02.23,2.39,4.49,1.87,3.81-1.59,4.43-1.7,2.16-.28,2.78-.4,3.92-1.48,4.26-2.22,1.59-.62,1.7-1.7.68-2.73-2.04-6.53-6.36-8.58-7.33-10.62-1.99-4.54-1.99-5.91,2.22-2.67,2.16-4.66-.39-2.65,1.18-2.58,4.26-.33,5.05-1.34,2.22,2.14,2.84,3.62,2.01.91,2.2,1.48.14,3.68.91,4.06,1.1.29,1.15.96.19,2.2.81,2.29,1.05.19,1.05,1.1.05,2.58.72,2.72,1.58-.29,1.91.14,1.1,1.91,1.15.86-.29-10.8-.86-13.28-1.15-5.4-.86-5.45.86-3.3-.29-6.88-5.26-6.35-5.45-7.36-1-5.93-3.44-8.22c-2.1-1.97-5.24-4.37-11.23-4.46-3.31-.05-8.78,3.41-10.48,5.68s-5.07-1.44-6.6-2.88-6.2-7.43-7.12-9.04S13.56.16,11.33.13Z" style="fill: none; stroke: #000; stroke-miterlimit: 10; stroke-width: .25px;"/>
  </g>
</svg>