<?xml version="1.0" encoding="UTF-8"?>
<svg id="Layer_2" data-name="Layer 2" xmlns="http://www.w3.org/2000/svg" viewBox="0 0 129.45 94.54">
  <g id="Layer_2-2" data-name="Layer 2">
    <path d="M60.11,21.06c-1.78.2-2.68,2.46-3.34,2.77s-1.79,1.36-1.79,1.36c0,0,1.4.83,1.57,1.18l.17.35s-7.52,2.75-10.05,3.15-9.57,2.91-10.45,2.94-16.09.16-16.7.2,3.37,2.23,6.51,2.32-8.66,2.54-13.03,2.93-11.58.44-12.24.44-.96.48.74.66,17.01.35,18.49,0-3.02,1.79-6.38,2.32-8.09.83-9.84.79-2.45,0-1.84.48,7.65,1.44,11.5,1.36c3.85-.09,9.57-2.01,9.66-1.62s-6.51,2.93-8.52,3.63-6.3,1.27-7.17,1.57,8.57.92,11.58.7,7.78-2.1,7.91-1.75-7.13,4.9-9.18,5.51-3.93,1.49-2.36,1.44,10.93-1.49,12.28-1.97,2.14-.65.96.35-6.25,3.45-6.6,3.93,3.8.57,4.94.52,6.51-2.8,7.08-2.67-4.2,3.85-4.2,4.42,5.86-.13,7.83-.7-1.4,1.84-1.36,2.27,4.37.87,5.29.52.39.83,1.79.96,3.58-.52,4.2-.44,0,1.31,2.23,1.53,2.89-.61,3.32-.52,2.84,2.19,5.03,2.97,7.08,1.01,7.74,1.57,2.19,4.21,3.83,4,2.66-.86,3.15-.66,2.58.98,5.37-.25,4.38,2.05,5.24,2.25,1.61.33,1.61.33c0,0,2.33,17.38,3.81,19.23s2.61,1.97,3.33,1.97,1.61.76,3.45.84,5.7-.08,6.62-.32,2.97.08,5.18-1.08,4.46-.48,5.94-2.17,1.73-2.77,2.69-2.73,3.45-2.65,4.01-4.01.64-.16,2.13-1.93.16-2.45,1.04-2.73,2.61-1.65,3.09-3.89.28-3.09,1.53-4.7.28-3.25,1-4.98-.36-3.89-.36-4.74-.68-2.73-1.65-2.81-6.7.44-7.59-.16-3.93-.6-7.03-.92-8.55-.8-8.55-.8c0,0,1.97-1.36,2.05-3.37s-.55-11.13.09-11.87,2.89-2,1.97-5.48c-.92-3.48,1.23-1.2,1.97-3.66s-.68-2,.31-3.23,1.6-2.03,1.57-3.29.95-2.49,2.22-2.86,3.48-3.51,3.6-5.57-.29-5.15.04-6.3,2.14-2.67,2.14-2.67c0,0-1.34-1.3-2.09-1.13s3.89-4.44,3.86-5.01-4.13,3.07-4.37,3.05,4.15-4.34,4.21-4.62-5.74,4.16-6.33,4.25,1.74-2.76,1.72-3.26-6.44,4.92-7.65,5.57-7.29,4.04-9.33,4.74-8.76,2.86-11.04,4.85-4.73,4.32-5.78,9-1.05,6.89-2.16,7.01-4.15.18-6.54-.41-6.72-5.96-8.53-8.36c-1.81-2.4-3.33-2.84-5.58-2.59Z" style="fill: none; stroke: #000; stroke-miterlimit: 10; stroke-width: .5px;"/>
  </g>
</svg>