<?xml version="1.0" encoding="UTF-8"?>
<svg id="Layer_2" data-name="Layer 2" xmlns="http://www.w3.org/2000/svg" viewBox="0 0 111.41 105.21">
  <g id="Layer_2-2" data-name="Layer 2">
    <path d="M29.84,29.5c.34,2.32,1.34,3.24,1.34,4.91s1.34,6.14,0,6.25-10.94-4.24-14.96-8.26S4.5,19.01,3.38,13.54,1.82.36.81.25s-.45,3.57,0,9.6,2.68,17.64,8.82,24.34c6.14,6.7,8.78,10.53,11.5,13.95,2.73,3.44,12.95,16.74,16.74,20.65s8.82,6.47,11.39,5.13,1.23-4.91,1.67-5.58,2.01,2.68,5.58,4.47,6.03,1.23,6.25,2.12,2.12,14.74,2.23,17.08.22,9.94,1.45,10.72,2.9.33,3.35.56,1.9,1.67,3.35,1.67,5.47,0,6.81-.78,4.02,0,4.8-.45,2.57-2.46,3.24-2.79,3.8.22,5.13-.67,2.34-3.24,2.79-3.68,3.24,0,4.24-1,.56-3.68,1.12-4.35,2.79-.78,3.57-2.12-.78-3.46,0-4.24,3.01-.56,3.01-2.68.33-3.01,0-3.68,2.68-1.56,2.68-4.69-1.56-5.25-1.56-6.03,3.57-1.45,1.56-3.68c-2.01-2.23-8.67-3.36-14.51-3.8-5.88-.44-10.6.33-11.72.11s-7.26-4.13-7.93-4.69-3.35-11.83-5.13-15.96-4.75-11.33-8.04-16.19c-3.71-5.48-3.91-9.04-13.4-12.84C40.33,6.95,21.02,3.15,15.44,3.6s-13.06,1.23-12.28,1.9,8.15,2.01,8.37,2.79-7.81-.11-7.26,1.56,8.04,2.79,8.71,3.13-3.35.78-2.79,2.12,10.38,2.12,11.16,2.46-4.13,2.57-3.68,3.8,7.93,2.68,8.82,2.79-3.35,1.12-3.01,2.34,6.2,1.88,6.36,3.01Z" style="fill: none; stroke: #000; stroke-miterlimit: 10; stroke-width: .5px;"/>
  </g>
</svg>