<?xml version="1.0" encoding="UTF-8"?>
<svg id="Layer_2" data-name="Layer 2" xmlns="http://www.w3.org/2000/svg" viewBox="0 0 84.98 142.54">
  <g id="Layer_2-2" data-name="Layer 2">
    <path d="M7.2,49.42c-2.67-.14-4.86,1.46-5.2,2.19s-1.7.19-1.75.39,1.65,2.62,1.94,2.72.53,3.06,1.26,3.93.92,1.85,1.55,6.27,2.96,14.72,3.74,16.66c.78,1.94,3.72,10.93,3.97,13.28s.42,7.81,1.01,8.65,4.45,5.71,4.45,5.71c0,0-9.65,9.82-11.42,11.5s-4.03,2.6-3.19,5.2,5.54,7.64,6.38,7.22,1.44,1.92,3.53,2.25,3.9.46,4.43.17-.33,1.22.73,2.05,4.36,2.94,5.88,2.98,1.69-.53,2.41-.53.73,1.26,3.34,1.62,2.51-.98,3.59-.76,1.89,1.52,4.5,1.38,4.86-2.25,5.51-2.18,3.26.58,5.22.22,4.5-.51,5.29-.87.8-1.81,3.55-1.96,4.71-3.63,5.59-3.77,2.83-.58,3.05-1.67,1.16-1.09,1.74-1.96,4.5-5.15,1.02-7.54c-3.48-2.39-15.88-12.26-16.83-12.91s-2.13-1.93-2.93-2.15-3.14-3.67-4.52-6.33-1.51-5.09-1.51-5.58,1.02.58,1.77-.4.93-6.73,1.02-7.79,1.06.18,1.73.62,1.73,1.55,1.86-1.59c.13-3.14.84-3.14,1.55-2.39s3.85,2.04,3.23-.93.04-5.45.31-5.93.58,2.04,1.51,1.68,1.68-3.5,1.73-5,1.51-.71,1.59-3.37-.49-2.92.93-3.06,2.88-1.59,3.14-3.63-1.02-2.39.04-2.88,2.97-2.97,2.75-4.61-.53-1.55.75-2.66,1.46-2.44,1.42-3.94-1.24-2.44.75-4.25,1.77-3.32,1.82-4.3,4.78-4.87,4.69-6.42-.84-.84-2.13-.71,7.13-6.51,6.55-8.95-5.76.75-6.2.75,7-7.62,8.37-9.96.71-4.38-3.23-1.68-4.47,2.83-4.83,2.7,10.67-13.02,10.01-14.22-11.25,6.47-12.31,6.82-2.57.66-.53-1.55,6.33-5.54,6.64-7-5.18-.4-8.02,1.37-14.94,9.66-15.75,10.33-1.52.33-1.4-.41.46-2.19-.71-1.66-8.92,7.91-10.13,9.75-3.58,4.49-3.82,5.39-6.41,6.94-6.98,7.96-5.34,5.67-7.48,11.09c-2.14,5.42-5.57,16.79-6.03,17.01s-1.83-2.11-3.25-3.11-3.05-9.01-7.73-9.24Z" style="fill: none; stroke: #000; stroke-miterlimit: 10; stroke-width: .5px;"/>
  </g>
</svg>