<?xml version="1.0" encoding="UTF-8"?>
<svg id="Layer_2" data-name="Layer 2" xmlns="http://www.w3.org/2000/svg" viewBox="0 0 131.89 106.36">
  <g id="Layer_2-2" data-name="Layer 2">
    <path d="M55.47,41.43c-2.12,1.09-1.9,4.68-1.01,6.19.88,1.52,3.41,4.25,4.3,6.23s1.52,3.25,1.52,3.25c0,0-16.17-.25-25.15,0-8.97.25-14.91-3.41-20.22-5.05-5.31-1.64-14.66-4.17-14.66-3.41s8.35,5.16,9.53,5.22.1,2.01.87,2.58,3.95.54,4.42.68,1.03,2.4,2.98,1.94,3.13-.49,3.65.06,6.57,2.4,8.83,1.94,7.75-1.8,7.8-.56,1.27,3.5,3.45,3.5.58.87,1.24,1.45,2.62.29,3.13.51-.85.72-.03,1.25,2.22.18,2.72.29-.36,1.14.96,1.54,5.15.46,5.72.57.14,2.25,1.72,2.61,4.18.75,4.82,1.04,2.14.89,4.22.82,7.47.82,7.47.82c0,0-.44,1.97.29,3.19s1.73,4.1,5.46,4.61c.72.1,1.03-.3,1.09,0s-.79,3.22-1.15,4.19-3.1,11.35-3.04,12.39,1.46,2,2.12,1.94.36.91,1.52,1.46,4.49,1.94,5.52,1.94,1.88,0,3.1.67,4.07.61,5.1,0,2.67,1.09,4.31.79,3.28-2.25,3.89-2.31,3.04.55,4.25-.24,1.46-3.04,1.94-3.28,2.61.49,3.52-.79.36-3.22.61-3.64,2.25-.67,3.1-2.12.24-3.28.42-3.7,2.55.12,3.28-3.1-.97-4.55-.97-4.74,2.97-.36,1.76-2.85c-1.21-2.49-7.41-2-7.41-2.43s-2.06-1.64-3.7-1.88-9.05-.31-10.62-1.22-7.16-6.25-7.16-6.25c0,0,2-.12,2.67-1.58s.73-3.1,1.21-3.16,2.67,1.34,3.58.24,3.4-.73,4.01-2.25,1.21-4.31,1.58-4.13.91,2.55,2.31,1.58,3.58-2.98,3.64-4.37c.06-1.39-.18-.73,1.4-2.43s.55-3.46,1.7-3.7,2.91-.79,3.34-1.7-.3-3.34.3-3.52,3.38-2.12,3.45-3.22-.96-.49-.96-1.15,3.22-2.49,3.64-4.55-1.09-1.15-1.34-1.7,2.61-.85,3.52-3.4.61-3.15,0-3.64,2.97-3.71,3.04-5.1-1.4-.85-1.34-1.34,3.16-3.76,3.16-5.34-.49-.3-2.31.79,3.76-6.68,3.34-7.53-4.37,4.67-5.04,4.67,5.95-9.59,5.77-10.69-8.26,12.99-12.26,16.15c-4.01,3.16-13.42,11.17-15.6,12.32s-12.87,10.2-15.24,12.51-8.2,6.62-12.32,7.89c-4.13,1.27-9.53.18-11.05-1.15s-3.76-3.95-5.16-5.16-2.92-2.27-4.52-1.44Z" style="stroke: #000; stroke-miterlimit: 10; stroke-width: .5px;"/>
  </g>
</svg>