<?xml version="1.0" encoding="UTF-8"?>
<svg id="Layer_2" data-name="Layer 2" xmlns="http://www.w3.org/2000/svg" viewBox="0 0 144.05 111.36">
  <g id="Layer_2-2" data-name="Layer 2">
    <path d="M67.59,35.11c-3.08-.53-4.24-8.49-12.2-9.02s-16.61-.04-18.4,0c-3.62.07-13.96-.39-15.63-.33s-7.46-2.58-9.22-3.46,5.09,3.25,4.74,3.25-13.61-4.2-14.75-3.37,15.45,5.04,16.07,5.65-15.28,0-17.12.09-.7,2.46,6.58,2.81c7.29.35,12.2.61,12.2,1.4S1.11,34.06.31,34.76s7.19,1.93,9.12,1.93,12.99-.97,12.03,0-14.49,4.74-15.01,5.36,5.18,2.37,9.66,1.76c4.48-.61,4.83-.35,1.4,1.93s-7.46,2.55-6.15,3.07,8.43,1.58,10.53.97c2.11-.61,3.95-1.05,1.05,1.67-2.9,2.72-.44,2.9,4.04,2.81,4.48-.09,2.72.53.79,2.72s7.02,1.23,7.02,1.84.35,2.28,2.37,2.55,4.13.44,4.92-.61-.35,1.84.61,2.28,8.52-.09,9.48.79,2.63,5.27,4.92,6.41c2.28,1.14,3.25-.61,5.71,1.49s3.86,4.92,9.13,6.06c5.27,1.14,10.62.18,10.62,1.49s-.35,4.92-2.55,9.48-5.79,8.25-5.79,10.27,2.9,2.28,3.77,2.81-.09,2.98,2.19,3.86c2.28.88,5.53,2.81,7.11,2.81s3.07-.61,4.3,0,3.07,1.84,6.23,1.58,2.98-.89,5.44.04,6.41,1.46,8.25.4,1.67-.53,4.83-.79,6.58-.79,6.67-3.16c.09-2.37-1.05-3.42.97-2.63s4.83,1.49,6.41-.53-.09-5,2.37-6.32,4.57-2.63,4.74-5.09,2.02-.7,3.77-5.09c1.76-4.39-.79-8.16.97-9.04,1.76-.88,2.98-4.74-1.84-5.71s-6.76-.97-7.02-1.67-5-4.04-8.6-4.57c-3.6-.53-8.25.79-9.39.66s-9.31-6.45-9.31-7.24-.93-7.52-2.82-9.85-1.75-9.16-3.05-14.4c-1.31-5.24-5.09-13.24-4.8-17.46s1.89-5.38-2.18-10.33S76.64-.25,75.18.33s.58,4.05,2.56,4.73-3.88,1.29-4.01,2.72,4.62,3.13,6.32,3.6-4.62,4.01-4.42,4.83,9.65,2.38,9.93,2.92-8.09,2.92-7.82,4.83,3.06,1.77,2.58,2.45-3.13.27-2.79,2.65,2.18,2.92,2.11,3.26-.61,2.92-3.88,3.67-6.22-.56-8.18-.89Z" style="stroke: #000; stroke-miterlimit: 10; stroke-width: .5px;"/>
  </g>
</svg>