<?xml version="1.0" encoding="UTF-8"?>
<svg id="Layer_2" data-name="Layer 2" xmlns="http://www.w3.org/2000/svg" viewBox="0 0 85.02 144.84">
  <g id="Layer_2-2" data-name="Layer 2">
    <path d="M4.76,56.29c-.59-2.05,3.38,1.13.9-4.28C3.19,46.61.48,39.18.26,31.52S4.74,13.72,7,11.7c2.26-2.03,9.02-9.46,9.7-6.98.68,2.48-5.01,9.33-5.23,10.68s6.84-1.12,8.08.22-1.79,6.28-2.36,7.29,6.39,2.58,6.17,4.6-2.36,2.69-1.57,3.81,1.92,3.14,1.58,4.37,3.28.9,3.54,4.15c.26,3.25.94,17.83,1.61,18.06s3.36-20.97,6.28-24.45c2.92-3.48,18.84-29.95,20.19-32.3,1.35-2.36,1.91.22.67,4.26-1.23,4.04,1.57,2.24,3.36.67,1.79-1.57,1.46.56-.45,3.36-1.91,2.8-3.36,4.49-2.69,4.6s3.7-.79,3.36.9-5.27,6.73-5.05,7.29,1.57,2.47.45,4.37c-1.12,1.91-2.69,3.03-2.8,4.04s-.79,4.94-2.13,6.17-2.8,2.92-2.58,4.71c.22,1.79-2.13,5.16-2.02,6.95s2.47,16.26.67,17.95c-1.79,1.68-2.47-.56-2.13,2.36s-1.35,7.4-2.13,9.2-1.46,4.6-.9,6.06,2.69,2.92,4.26,5.94c1.57,3.03,2.69,7.29,5.94,8.08s10.77,1.12,15.93.67,9.53-1.28,9.65.2-2.02,4.06-1.23,4.17,10.43-1.68,9.53,2.13c-.9,3.81-1.91,4.26-3.25,4.26s1.01,5.38-1.23,7.51c-2.24,2.13-5.27,3.48-5.5,5.61-.22,2.13-.22,4.04-3.14,6.28s-3.93,2.13-4.49,2.92.22,3.7-2.69,5.38c-2.92,1.68-8.19-.45-8.52,0s.11,5.83-3.81,7.07c-3.93,1.23-6.51-1.46-7.85-1.46s-2.02,1.77-6.73,1.78c-4.71.01-5.94-4.02-6.95-4.02s-2.13.79-5.27-.22c-3.14-1.01-4.94-4.49-6.06-4.71s-3.03.45-5.05-1.01c-2.02-1.46-2.13-3.14-4.26-3.14s-.45-5.05-2.47-5.16-5.05-1.35-3.25-2.69c1.79-1.35,18.73-15.14,18.96-16.15s-5.5-2.69-6.62-6.95c-1.12-4.26-.79-8.08-2.02-10.43-1.23-2.36-4.94-9.42-5.16-12.34-.22-2.92-1.12-11.55-2.24-12.67s-1.86-7.14-2.33-8.79Z" style="stroke: #000; stroke-miterlimit: 10; stroke-width: .5px;"/>
  </g>
</svg>