<?xml version="1.0" encoding="UTF-8"?>
<svg id="Layer_2" data-name="Layer 2" xmlns="http://www.w3.org/2000/svg" viewBox="0 0 138.14 107.34">
  <g id="Layer_2-2" data-name="Layer 2">
    <path d="M67.15,34.52l2.73,2.18s.66,2.07,1.31,2.51,1.53,3.71,1.75,5.02,2.02,4.37,1.88,6-.35,4.48-2.32,5.46-7.31,5.57-15.18,6.99-22.49,7.21-28.06,8.41-22.55,3.04-27.62,3.82c-1.9.29,8.61,1.5,6.8,1.77s-7.43.33-8.17.8,12.12,1.67,11.78,2.74-6.49,1.07-6.49,1.54,9.24,1.87,12.12,2.21-5.02,1.94-4.42,2.41,10.31.47,10.85.47-3.08,2.34-2.54,3.01,7.23-.47,7.97-.27-.74,1.87-.4,2.08,5.36.4,7.56-.33.07.54.33,1.21,6.09.47,7.36-1.41c1.27-1.87-.47,2.68.2,2.68s5.02.2,5.89-1.54,1.14-.8,1.34-.27,1.47,3.09,4.15,1.81,1.47-.74,2.81-.07,2.74-.94,3.35-.94,2.34,1.14,3.21.27.4-1.61.8-1.61,2.34.54,3.41.07.6-2.41,1.61-2.34,2.22.87,3.65-.4.16-1.61,1.77-1.81c0,0,1.74.47,2.81-.13s.27-1.47,1.81-1.61,2.54-.13,2.54-1.47,1.74-1.54,3.48-1.94,1.67-3.82,1.94-4.75.87-.87,1.34-.54,3.08,3.35,4.55,3.48,3.55,2.01,3.68,2.41.13,7.5,0,9.04-.67,12.12-.2,12.72,2.41.2,3.01,1,2.54,1.74,3.88,1.34,1.41.67,2.81.54,2.14-1.54,3.55-1.07,1.94.47,3.62,0,3.75.47,4.49.07,1.67-2.41,2.54-2.41,3.41-.33,4.02-1.07,1-3.28,2.01-3.21,2.74-1.87,2.74-3.15.4-1.94.94-2.08,1.54-2.21,1.67-4.15,1.67-1.14,1.81-3.08,0-4.08.8-4.35,2.21-3.88.94-4.69-5.49-2.41-6.16-2.14-3.01-2.54-5.76-2.88-3.95-1.27-5.62-.87-2.21.6-2.21.6c0,0-3.62-1.81-5.29-3.21s-4.22-4.62-4.22-4.62c0,0,3.28.06,3.48-.87s1.61-.27,2.61-1.07,1.34-1.41,1.34-1.41c0,0,1.45,1.71,2.22.55s.2-5.29.53-5.32,1.5.86,2.33.47.37-1.6.7-1.8,2.36.76,2.73-.33.03-2.26.17-2.79,2.56.27,3.06-.47-.03-1.13.23-1.63,1.06.07,1.23-1.06-1.3-3.42-1.23-3.72,2.29.33,2.53-1.2-1.46-2.43-1.46-3.19,2.86-.53,3.56-1.7.2-3.03.4-3.72,1.99-1.13,1.96-2.59-2.13-2.26-2.13-2.76,2.29-2.19,2.39-3.96-1.73-1.8-1.73-2.6,1.63-7.01,1.41-8.51-4.94,2.03-5.86,2.2,4.89-6.57,4.36-8.24-5.6,3.66-6.44,3.66,1.54-11.42.62-12.43-13.95,20.15-16.94,23.14-9.71,7.77-11.66,11.96-5.98,7.92-8.07,8.07-7.12-1.88-7.98-2.27-3.7-3.11-3.88-3.77-1.98-5.6-3.77-6.19-4.4.52-4.78,1.11-2.89,2.19-2.89,2.19Z" style="stroke: #000; stroke-miterlimit: 10; stroke-width: .5px;"/>
  </g>
</svg>