<?xml version="1.0" encoding="UTF-8"?>
<svg id="Layer_2" data-name="Layer 2" xmlns="http://www.w3.org/2000/svg" viewBox="0 0 93.33 113.74">
  <g id="Layer_2-2" data-name="Layer 2">
    <path d="M17.24.25c-2.22-.04-4.83,2.63-5.05,3.4s-3.84,1.1-3.51,1.54,2.96,1.86,3.51,2.52,1.65,3.29,1.76,4.94-.11,23.8-.44,24.35-9.98,1.32-12.51,8.12c-2.52,6.8,1.99,17.69,3.62,19.96,5.3,7.4,12.72,7.02,14.37,9.1s11.08,7.68,13.71,8.89c2.63,1.21,7.46.99,7.57,1.86s3.06,8.12,2.98,11.39,1.12,11.02,1.81,11.27,1.72-.26,1.72,1.38,3.87,1.12,4.73,1.55.34,3.61,6.8,2.84c6.46-.77,5.77-2.41,6.71-2.58s3.27-.43,4.22-.6,5.94-2.24,6.46-3.36,2.41-.95,2.58-2.58,1.03-4.13-3.1-9.9-9.64-13-11.1-16.09-3.01-6.89-3.01-8.95,3.36-4.05,3.27-7.06-.59-4.01,1.79-3.91,6.46-.5,7.65-2.04,3.36,3.24,4.31,5.48,3.04,1.38,3.33,2.24.22,5.58,1.38,6.15,1.67.43,1.74,1.45.29,3.33,1.23,3.48,1.59.29,1.59,1.67.07,3.91,1.09,4.13,2.39-.43,2.9.22,1.67,2.9,1.74,1.3-.43-16.36-1.3-20.13-1.74-8.18-1.3-8.25,1.3-5-.43-10.43-7.96-9.63-8.25-11.15-1.52-8.98-5.21-12.45c-3.19-2.99-7.93-6.62-17.02-6.76-5.01-.08-13.31,5.17-15.89,8.61s-7.68-2.18-10-4.37c-2.32-2.18-9.4-11.26-10.79-13.71S20.61.31,17.24.25Z" style="stroke: #000; stroke-miterlimit: 10; stroke-width: .5px;"/>
  </g>
</svg>